<mxfile host="app.diagrams.net" modified="2021-01-11T05:04:21.113Z" agent="5.0 (Macintosh; Intel Mac OS X 10_15_7) AppleWebKit/537.36 (KHTML, like Gecko) Chrome/87.0.4280.141 Safari/537.36" etag="lsE5v-porBK0syxjrYW9" version="14.1.9" type="github">
  <diagram id="C5RBs43oDa-KdzZeNtuy" name="Page-1">
    <mxGraphModel dx="839" dy="531" grid="1" gridSize="10" guides="1" tooltips="1" connect="1" arrows="1" fold="1" page="1" pageScale="1" pageWidth="827" pageHeight="1169" math="0" shadow="0">
      <root>
        <mxCell id="WIyWlLk6GJQsqaUBKTNV-0" />
        <mxCell id="WIyWlLk6GJQsqaUBKTNV-1" parent="WIyWlLk6GJQsqaUBKTNV-0" />
        <mxCell id="LEbugSoTyeR6-p7tngCZ-11" value="Image Metadata Collection Service" style="verticalAlign=top;align=left;spacingTop=8;spacingLeft=2;spacingRight=12;shape=cube;size=10;direction=south;fontStyle=4;html=1;" parent="WIyWlLk6GJQsqaUBKTNV-1" vertex="1">
          <mxGeometry x="40" y="240" width="630" height="420" as="geometry" />
        </mxCell>
        <mxCell id="Ya1_WFq1DWij1B-eGoRc-0" value="Image Metadata&lt;br&gt;Message Queue&lt;br&gt;Topic" style="strokeWidth=2;html=1;shape=mxgraph.flowchart.direct_data;whiteSpace=wrap;" parent="WIyWlLk6GJQsqaUBKTNV-1" vertex="1">
          <mxGeometry x="250" y="340" width="150" height="60" as="geometry" />
        </mxCell>
        <mxCell id="Ya1_WFq1DWij1B-eGoRc-1" value="Rate Limited Image Metadata&lt;br&gt;Collection Producer" style="rounded=1;whiteSpace=wrap;html=1;absoluteArcSize=1;arcSize=14;strokeWidth=2;" parent="WIyWlLk6GJQsqaUBKTNV-1" vertex="1">
          <mxGeometry x="60" y="320" width="100" height="100" as="geometry" />
        </mxCell>
        <mxCell id="Ya1_WFq1DWij1B-eGoRc-4" value="Image Metadata" style="html=1;verticalAlign=bottom;endArrow=block;exitX=1;exitY=0.5;exitDx=0;exitDy=0;" parent="WIyWlLk6GJQsqaUBKTNV-1" source="Ya1_WFq1DWij1B-eGoRc-1" edge="1">
          <mxGeometry width="80" relative="1" as="geometry">
            <mxPoint x="170" y="369.58" as="sourcePoint" />
            <mxPoint x="250" y="369.58" as="targetPoint" />
          </mxGeometry>
        </mxCell>
        <mxCell id="Ya1_WFq1DWij1B-eGoRc-6" value="Online?" style="rhombus;whiteSpace=wrap;html=1;fillColor=#ffffc0;strokeColor=#ff0000;" parent="WIyWlLk6GJQsqaUBKTNV-1" vertex="1">
          <mxGeometry x="70" y="540" width="80" height="40" as="geometry" />
        </mxCell>
        <mxCell id="Ya1_WFq1DWij1B-eGoRc-9" value="Threshold Count Met?" style="rhombus;whiteSpace=wrap;html=1;fillColor=#ffffc0;strokeColor=#ff0000;" parent="WIyWlLk6GJQsqaUBKTNV-1" vertex="1">
          <mxGeometry x="490" y="330" width="140" height="80" as="geometry" />
        </mxCell>
        <mxCell id="Ya1_WFq1DWij1B-eGoRc-11" value="yes" style="edgeStyle=orthogonalEdgeStyle;html=1;align=left;verticalAlign=top;endArrow=open;endSize=8;strokeColor=#ff0000;" parent="WIyWlLk6GJQsqaUBKTNV-1" source="Ya1_WFq1DWij1B-eGoRc-9" target="Ya1_WFq1DWij1B-eGoRc-6" edge="1">
          <mxGeometry x="-1" relative="1" as="geometry">
            <mxPoint x="560" y="490" as="targetPoint" />
            <Array as="points">
              <mxPoint x="560" y="450" />
              <mxPoint x="110" y="450" />
            </Array>
          </mxGeometry>
        </mxCell>
        <mxCell id="Ya1_WFq1DWij1B-eGoRc-12" value="Image Metadata" style="html=1;verticalAlign=bottom;endArrow=block;exitX=1;exitY=0.5;exitDx=0;exitDy=0;exitPerimeter=0;entryX=0;entryY=0.5;entryDx=0;entryDy=0;" parent="WIyWlLk6GJQsqaUBKTNV-1" source="Ya1_WFq1DWij1B-eGoRc-0" target="Ya1_WFq1DWij1B-eGoRc-9" edge="1">
          <mxGeometry x="0.0222" width="80" relative="1" as="geometry">
            <mxPoint x="450" y="370" as="sourcePoint" />
            <mxPoint x="554" y="499.5799999999998" as="targetPoint" />
            <mxPoint as="offset" />
          </mxGeometry>
        </mxCell>
        <mxCell id="Ya1_WFq1DWij1B-eGoRc-13" value="yes" style="edgeStyle=orthogonalEdgeStyle;html=1;align=left;verticalAlign=top;endArrow=open;endSize=8;strokeColor=#ff0000;exitX=1;exitY=0.5;exitDx=0;exitDy=0;entryX=0;entryY=0.5;entryDx=0;entryDy=0;" parent="WIyWlLk6GJQsqaUBKTNV-1" source="Ya1_WFq1DWij1B-eGoRc-6" edge="1" target="E-BLmExjyVE-HBWsHxf6-1">
          <mxGeometry x="-1" relative="1" as="geometry">
            <mxPoint x="270" y="560" as="targetPoint" />
            <mxPoint x="570" y="420" as="sourcePoint" />
            <Array as="points" />
          </mxGeometry>
        </mxCell>
        <mxCell id="Ya1_WFq1DWij1B-eGoRc-15" value="Glare Detection Service" style="ellipse;shape=cloud;whiteSpace=wrap;html=1;" parent="WIyWlLk6GJQsqaUBKTNV-1" vertex="1">
          <mxGeometry x="300" y="460" width="345" height="200" as="geometry" />
        </mxCell>
        <mxCell id="E-BLmExjyVE-HBWsHxf6-1" value="Image Metadata Collection Service Batch Consumer" style="rounded=1;whiteSpace=wrap;html=1;absoluteArcSize=1;arcSize=14;strokeWidth=2;" vertex="1" parent="WIyWlLk6GJQsqaUBKTNV-1">
          <mxGeometry x="300" y="520" width="90" height="80" as="geometry" />
        </mxCell>
      </root>
    </mxGraphModel>
  </diagram>
</mxfile>
